<?xml version="1.0" encoding="utf-8"?>
<svg xmlns="http://www.w3.org/2000/svg" viewBox="0 0 548.2 176.2" xmlns:bx="https://boxy-svg.com">
  <defs>
    <path id="path-0" d="M 86.17 196.809 C 194.016 256.43 258.368 288.421 323.192 319.787 L 326.17 320.638 C 327.229 321.697 329.574 324.465 329.574 321.489" style="fill: none;"/>
    <linearGradient gradientUnits="userSpaceOnUse" x1="248.892" y1="146.489" x2="248.892" y2="284.361" id="gradient-0" gradientTransform="matrix(1.145613, 0, 0, 1.278153, 0.000027, 0.000033)">
      <stop offset="0" style="stop-color: rgb(106, 66, 194);"/>
      <stop offset="1" style="stop-color: rgb(94, 58, 156);"/>
    </linearGradient>
    <bx:export>
      <bx:file format="svg"/>
    </bx:export>
  </defs>
  <rect x="11.406" y="187.235" width="547.456" height="176.221" style="stroke: rgb(0, 0, 0); stroke-width: 0px; fill: url(&quot;#gradient-0&quot;);" transform="matrix(1, 0, 0.004178, 1, -12.184392, -187.245507)" rx="5.53" ry="5.53"/>
  <g transform="matrix(1.001449, 0, 0, 1.001449, 23.607692, -162.732826)" style="">
    <g transform="matrix(1, 0, 0, 1, 3.674987, 3.834135)">
      <path d="M 64.594 284.985 L 64.594 216.199 L 101.581 216.199 L 101.581 227.055 L 77.6 227.055 L 77.6 245.115 L 98.532 245.115 L 98.532 256.168 L 77.6 256.168 L 77.6 284.985 L 64.594 284.985 Z" style="text-wrap-mode: nowrap; stroke-miterlimit: 1; stroke-linecap: round; fill: rgb(255, 255, 255);"/>
      <path d="M 401.364 284.985 L 401.364 216.199 L 414.269 216.199 L 414.269 274.129 L 435.405 274.129 L 435.405 284.985 L 401.364 284.985 Z" style="text-wrap-mode: nowrap; stroke-miterlimit: 1; stroke-linecap: round; fill: rgb(255, 255, 255);"/>
      <path d="M 327.59 284.985 L 327.59 215.015 L 328.606 215.015 L 357.261 247.828 L 385.713 215.015 L 386.831 215.015 L 386.831 284.985 L 374.23 284.985 L 374.23 255.477 L 374.687 243.832 L 371.08 249.161 L 357.159 265.05 L 343.237 249.161 L 339.63 243.832 L 340.189 255.477 L 340.189 284.985 L 327.59 284.985 Z" style="text-wrap-mode: nowrap; stroke-miterlimit: 1; stroke-linecap: round; fill: rgb(255, 255, 255);"/>
      <path d="M 253.815 284.985 L 253.815 215.015 L 254.831 215.015 L 283.487 247.828 L 311.939 215.015 L 313.056 215.015 L 313.056 284.985 L 300.457 284.985 L 300.457 255.477 L 300.913 243.832 L 297.306 249.161 L 283.385 265.05 L 269.464 249.161 L 265.856 243.832 L 266.416 255.477 L 266.416 284.985 L 253.815 284.985 Z" style="text-wrap-mode: nowrap; stroke-miterlimit: 1; stroke-linecap: round; fill: rgb(255, 255, 255);"/>
      <path d="M 208.852 253.898 L 214.237 253.898 C 217.218 253.898 219.717 253.215 221.732 251.85 C 223.747 250.485 225.272 248.692 226.305 246.472 C 227.338 244.251 227.854 241.858 227.854 239.292 C 227.854 234.851 226.804 231.537 224.703 229.35 C 222.604 227.162 219.013 226.068 213.933 226.068 L 208.852 226.068 L 208.852 253.898 Z M 242.792 284.985 L 227.042 284.985 L 208.852 260.115 L 208.852 284.985 L 195.947 284.985 L 195.947 216.199 L 215.66 216.199 C 220.47 216.199 224.772 216.882 228.566 218.247 C 232.359 219.612 235.357 221.89 237.558 225.081 C 239.76 228.272 240.861 232.614 240.861 238.108 C 240.861 241.101 240.344 244.185 239.311 247.36 C 238.278 250.535 236.568 253.372 234.18 255.872 C 231.792 258.372 228.566 260.115 224.501 261.102 L 242.792 284.985 Z" style="text-wrap-mode: nowrap; stroke-miterlimit: 1; stroke-linecap: round; fill: rgb(255, 255, 255);"/>
      <g transform="matrix(1, 0, 0, 1, 0.5005, 0.398994)">
        <path d="M 112.381 215.786 H 181.181 V 284.586 H 112.381 V 215.786 Z M 120.381 223.786 V 276.586 H 173.181 V 223.786 H 120.381 Z" style="stroke: rgb(0, 0, 0); stroke-width: 0px; stroke-miterlimit: 4.1; fill: rgb(255, 255, 255);"/>
        <rect y="230.905" width="27.877" height="8" style="stroke: rgb(0, 0, 0); stroke-width: 0px; fill: rgb(255, 179, 63);" x="128.513"/>
        <rect x="128.513" y="261.095" width="36.8" height="8" style="stroke: rgb(0, 0, 0); stroke-width: 0px; fill: rgb(255, 69, 244);"/>
        <rect x="128.513" y="246" width="36.8" height="8" style="stroke: rgb(0, 0, 0); stroke-width: 0px; fill: rgb(255, 74, 134);"/>
      </g>
    </g>
    <g transform="matrix(1, 0, 0, 1, 1.774046, 4.534638)">
      <path d="M 37.225 265.282 Q 37.225 262.399 36.388 260.493 Q 35.551 258.586 34.296 257.377 Q 33.04 256.168 31.506 255.424 Q 29.971 254.68 28.576 254.122 L 28.576 247.147 Q 30.343 246.496 31.924 245.706 Q 33.505 244.915 34.714 243.66 Q 35.923 242.404 36.574 240.405 Q 37.225 238.405 37.225 235.057 Q 37.225 232.453 37.132 230.361 Q 37.039 228.268 36.9 226.176 Q 36.76 224.083 36.667 221.712 Q 36.574 219.34 36.574 216.271 Q 36.574 213.109 38.248 210.784 Q 39.922 208.459 42.387 206.878 Q 44.851 205.297 47.688 204.321 Q 50.524 203.344 52.849 202.786 L 54.151 209.296 Q 51.268 209.947 49.129 211.063 Q 47.083 212.086 45.502 213.76 Q 43.921 215.434 43.921 217.852 Q 43.921 221.665 44.247 225.711 Q 44.572 229.756 44.572 235.615 Q 44.665 241.195 42.991 245.241 Q 41.317 249.286 36.853 250.681 Q 41.317 251.983 42.945 255.564 Q 44.572 259.144 44.572 264.724 Q 44.572 270.583 44.247 274.629 Q 43.921 278.674 43.921 282.487 Q 44.014 284.998 45.549 286.626 Q 47.083 288.253 49.036 289.276 Q 51.268 290.392 54.151 291.043 L 52.849 297.553 Q 50.524 296.995 47.688 296.019 Q 44.851 295.042 42.34 293.415 Q 39.829 291.787 38.202 289.509 Q 36.574 287.23 36.574 284.068 Q 36.574 280.999 36.667 278.628 Q 36.76 276.256 36.9 274.164 Q 37.039 272.071 37.132 269.979 Q 37.225 267.886 37.225 265.282 Z" style="fill: rgb(255, 255, 255); text-wrap-mode: nowrap;"/>
      <path d="M 459.479 265.282 Q 459.479 267.886 459.572 269.979 Q 459.665 272.071 459.804 274.164 Q 459.944 276.256 460.037 278.628 Q 460.13 280.999 460.13 284.068 Q 460.13 287.23 458.456 289.555 Q 456.782 291.88 454.317 293.461 Q 451.853 295.042 449.016 296.065 Q 446.18 297.088 443.855 297.553 L 442.553 291.043 Q 445.343 290.392 447.668 289.276 Q 449.528 288.253 451.155 286.626 Q 452.783 284.998 452.783 282.487 Q 452.783 278.674 452.457 274.629 Q 452.132 270.583 452.132 264.724 Q 452.132 259.144 453.759 255.564 Q 455.387 251.983 459.851 250.681 Q 455.573 249.472 453.806 245.334 Q 452.039 241.195 452.132 235.615 Q 452.132 229.756 452.457 225.711 Q 452.783 221.665 452.783 217.852 Q 452.783 215.434 451.248 213.76 Q 449.714 212.086 447.668 211.063 Q 445.343 209.947 442.553 209.296 L 443.855 202.786 Q 446.18 203.344 449.016 204.321 Q 451.853 205.297 454.317 206.878 Q 456.782 208.459 458.456 210.784 Q 460.13 213.109 460.13 216.271 Q 460.13 219.34 460.037 221.712 Q 459.944 224.083 459.804 226.176 Q 459.665 228.268 459.572 230.361 Q 459.479 232.453 459.479 235.057 Q 459.479 238.405 460.13 240.405 Q 460.781 242.404 461.99 243.66 Q 463.199 244.915 464.733 245.659 Q 466.268 246.403 468.128 247.147 L 468.128 254.122 Q 466.733 254.68 465.152 255.471 Q 463.571 256.261 462.362 257.424 Q 461.153 258.586 460.316 260.493 Q 459.479 262.399 459.479 265.282 Z" style="fill: rgb(255, 255, 255); text-wrap-mode: nowrap;"/>
    </g>
  </g>
</svg>