<?xml version="1.0" encoding="utf-8"?>
<svg xmlns="http://www.w3.org/2000/svg" viewBox="0 0 176 176" xmlns:bx="https://boxy-svg.com">
  <defs>
    <path id="path-0" d="M 86.17 196.809 C 194.016 256.43 258.368 288.421 323.192 319.787 L 326.17 320.638 C 327.229 321.697 329.574 324.465 329.574 321.489" style="fill: none;"/>
    <linearGradient gradientUnits="userSpaceOnUse" x1="248.892" y1="146.489" x2="248.892" y2="284.361" id="gradient-0" gradientTransform="matrix(0.3683, 0, 0, 1.276691, 0.000009, 0.000033)">
      <stop offset="0" style="stop-color: rgb(106, 66, 194);"/>
      <stop offset="1" style="stop-color: rgb(94, 58, 156);"/>
    </linearGradient>
    <bx:export>
      <bx:file format="svg"/>
    </bx:export>
  </defs>
  <rect width="176" height="176" style="fill: url(&quot;#gradient-0&quot;);" ry="26.72" rx="26.72"/>
  <g style="" transform="matrix(1.116541, 0, 0, 1.116541, 18.109571, -190.62706)">
    <g transform="matrix(1, 0, 0, 1, -84.686012, -1.040137)">
      <g transform="matrix(1, 0, 0, 1, 0.5005, 0.398994)">
        <path d="M 112.381 215.786 H 181.181 V 284.586 H 112.381 V 215.786 Z M 120.381 223.786 V 276.586 H 173.181 V 223.786 H 120.381 Z" style="stroke: rgb(0, 0, 0); stroke-width: 0px; stroke-miterlimit: 4.1; fill: rgb(255, 255, 255);"/>
        <rect y="230.905" width="27.877" height="8" style="stroke: rgb(0, 0, 0); stroke-width: 0px; fill: rgb(255, 255, 255);" x="128.513"/>
        <rect x="128.513" y="261.095" width="36.8" height="8" style="stroke: rgb(0, 0, 0); stroke-width: 0px; fill: rgb(255, 255, 255);"/>
        <rect x="128.513" y="246" width="36.8" height="8" style="stroke: rgb(0, 0, 0); stroke-width: 0px; fill: rgb(255, 255, 255);"/>
      </g>
    </g>
    <g transform="matrix(1, 0, 0, 1, 3.297985, 4.665346)">
      <path d="M 2.123 259.992 C 2.123 258.07 1.844 256.474 1.286 255.203 C 0.728 253.932 0.03 252.893 -0.806 252.087 C -1.644 251.281 -2.574 250.63 -3.596 250.134 C -4.62 249.638 -5.596 249.204 -6.526 248.832 L -6.526 241.857 C -5.348 241.423 -4.232 240.943 -3.178 240.416 C -2.124 239.889 -1.194 239.207 -0.388 238.37 C 0.418 237.533 1.038 236.448 1.472 235.115 C 1.906 233.782 2.123 231.999 2.123 229.767 C 2.123 228.031 2.092 226.466 2.03 225.071 C 1.968 223.676 1.89 222.281 1.798 220.886 C 1.704 219.491 1.627 218.003 1.565 216.422 C 1.503 214.841 1.472 213.027 1.472 210.981 C 1.472 208.873 2.03 207.044 3.146 205.494 C 4.262 203.944 5.641 202.642 7.285 201.588 C 8.927 200.534 10.694 199.682 12.586 199.031 C 14.476 198.38 16.197 197.868 17.747 197.496 L 19.049 204.006 C 17.127 204.44 15.453 205.029 14.027 205.773 C 12.663 206.455 11.454 207.354 10.4 208.47 C 9.346 209.586 8.819 210.95 8.819 212.562 C 8.819 215.104 8.927 217.724 9.145 220.421 C 9.361 223.118 9.47 226.419 9.47 230.325 C 9.532 234.045 9.005 237.254 7.889 239.951 C 6.773 242.648 4.727 244.461 1.751 245.391 C 4.727 246.259 6.757 247.887 7.843 250.274 C 8.927 252.661 9.47 255.714 9.47 259.434 C 9.47 263.34 9.361 266.642 9.145 269.339 C 8.927 272.036 8.819 274.655 8.819 277.197 C 8.881 278.871 9.423 280.251 10.447 281.336 C 11.469 282.421 12.632 283.304 13.934 283.986 C 15.422 284.73 17.127 285.319 19.049 285.753 L 17.747 292.263 C 16.197 291.891 14.476 291.38 12.586 290.729 C 10.694 290.078 8.912 289.21 7.238 288.125 C 5.564 287.04 4.184 285.738 3.1 284.219 C 2.014 282.7 1.472 280.886 1.472 278.778 C 1.472 276.732 1.503 274.919 1.565 273.338 C 1.627 271.757 1.704 270.269 1.798 268.874 C 1.89 267.479 1.968 266.084 2.03 264.689 C 2.092 263.294 2.123 261.728 2.123 259.992 Z" style="fill: rgb(255, 255, 255); text-wrap-mode: nowrap;"/>
      <path d="M 116.472 259.992 C 116.472 261.728 116.503 263.294 116.565 264.689 C 116.627 266.084 116.705 267.479 116.797 268.874 C 116.891 270.269 116.968 271.757 117.03 273.338 C 117.092 274.919 117.123 276.732 117.123 278.778 C 117.123 280.886 116.565 282.715 115.449 284.265 C 114.333 285.815 112.954 287.117 111.31 288.171 C 109.668 289.225 107.901 290.093 106.009 290.775 C 104.119 291.457 102.398 291.953 100.848 292.263 L 99.546 285.753 C 101.406 285.319 103.111 284.73 104.661 283.986 C 105.901 283.304 107.064 282.421 108.148 281.336 C 109.234 280.251 109.776 278.871 109.776 277.197 C 109.776 274.655 109.668 272.036 109.45 269.339 C 109.234 266.642 109.125 263.34 109.125 259.434 C 109.125 255.714 109.668 252.661 110.752 250.274 C 111.838 247.887 113.868 246.259 116.844 245.391 C 113.992 244.585 111.977 242.803 110.799 240.044 C 109.621 237.285 109.063 234.045 109.125 230.325 C 109.125 226.419 109.234 223.118 109.45 220.421 C 109.668 217.724 109.776 215.104 109.776 212.562 C 109.776 210.95 109.265 209.586 108.241 208.47 C 107.219 207.354 106.025 206.455 104.661 205.773 C 103.111 205.029 101.406 204.44 99.546 204.006 L 100.848 197.496 C 102.398 197.868 104.119 198.38 106.009 199.031 C 107.901 199.682 109.668 200.534 111.31 201.588 C 112.954 202.642 114.333 203.944 115.449 205.494 C 116.565 207.044 117.123 208.873 117.123 210.981 C 117.123 213.027 117.092 214.841 117.03 216.422 C 116.968 218.003 116.891 219.491 116.797 220.886 C 116.705 222.281 116.627 223.676 116.565 225.071 C 116.503 226.466 116.472 228.031 116.472 229.767 C 116.472 231.999 116.689 233.782 117.123 235.115 C 117.557 236.448 118.177 237.533 118.983 238.37 C 119.789 239.207 120.704 239.873 121.726 240.369 C 122.75 240.865 123.881 241.361 125.121 241.857 L 125.121 248.832 C 124.191 249.204 123.199 249.654 122.145 250.181 C 121.091 250.708 120.161 251.359 119.355 252.134 C 118.549 252.909 117.867 253.932 117.309 255.203 C 116.751 256.474 116.472 258.07 116.472 259.992 Z" style="fill: rgb(255, 255, 255); text-wrap-mode: nowrap;"/>
    </g>
  </g>
</svg>