<?xml version="1.0" encoding="utf-8"?>
<svg xmlns="http://www.w3.org/2000/svg" viewBox="0 0 114 114" xmlns:bx="https://boxy-svg.com" width="256px" height="256px">
  <defs>
    <linearGradient gradientUnits="userSpaceOnUse" bx:pinned="true" id="color-0">
      <stop style="stop-color: #222831;"/>
    </linearGradient>
    <linearGradient gradientUnits="userSpaceOnUse" bx:pinned="true" id="color-1">
      <stop style="stop-color: #393e46;"/>
    </linearGradient>
    <linearGradient gradientUnits="userSpaceOnUse" bx:pinned="true" id="color-2">
      <stop style="stop-color: #00adb5;"/>
    </linearGradient>
    <linearGradient gradientUnits="userSpaceOnUse" bx:pinned="true" id="color-3">
      <stop style="stop-color: #eeeeee;"/>
    </linearGradient>
    <linearGradient gradientUnits="userSpaceOnUse" bx:pinned="true" id="color-4">
      <stop style="stop-color: rgb(56, 255, 252);"/>
    </linearGradient>
    <linearGradient gradientUnits="userSpaceOnUse" bx:pinned="true" id="color-5">
      <stop style="stop-color: #252a34;"/>
    </linearGradient>
    <linearGradient gradientUnits="userSpaceOnUse" bx:pinned="true" id="color-6">
      <stop style="stop-color: #ff2e63;"/>
    </linearGradient>
    <linearGradient gradientUnits="userSpaceOnUse" bx:pinned="true" id="color-7">
      <stop style="stop-color: #eaeaea;"/>
    </linearGradient>
    <bx:export>
      <bx:file format="png" href="#object-0" width="256" height="238"/>
      <bx:file format="png" path="icon-sm-dark.png" dpi="300" width="256" height="256"/>
    </bx:export>
  </defs>
  <g style="" transform="matrix(1.116541, 0, 0, 1.116541, -12.890429, -221.62706)" id="object-0">
    <g transform="matrix(0.890381, 0, 0, 0.890381, -68.541016, 26.428633)" style="">
      <g transform="matrix(1.344372, 0, 0, 1.344372, -50.224232, -84.499748)" style="">
        <rect y="230.905" width="27.877" height="7" style="stroke: rgb(0, 0, 0); stroke-width: 0px; fill: url(&quot;#color-4&quot;);" x="128.513"/>
        <rect x="128.513" y="261.095" width="36.8" height="6.5" style="stroke: rgb(0, 0, 0); stroke-width: 0px; fill: url(&quot;#color-4&quot;);"/>
        <rect x="128.513" y="246" width="36.8" height="6.5" style="stroke: rgb(0, 0, 0); stroke-width: 0px; fill: url(&quot;#color-4&quot;);"/>
      </g>
    </g>
    <g transform="matrix(1, 0, 0, 1, -11.510512, 4.665346)">
      <path d="M 31.74 259.992 C 31.74 258.07 31.461 256.474 30.903 255.203 C 30.345 253.932 29.647 252.893 28.811 252.087 C 27.973 251.281 27.043 250.63 26.021 250.134 C 24.997 249.638 24.021 249.204 23.091 248.832 L 23.091 241.857 C 24.269 241.423 25.385 240.943 26.439 240.416 C 27.493 239.889 28.423 239.207 29.229 238.37 C 30.035 237.533 30.655 236.448 31.089 235.115 C 31.523 233.782 31.74 231.999 31.74 229.767 C 31.74 228.031 31.709 226.466 31.647 225.071 C 31.585 223.676 31.507 222.281 31.415 220.886 C 31.321 219.491 31.244 218.003 31.182 216.422 C 31.12 214.841 31.089 213.027 31.089 210.981 C 31.089 208.873 31.647 207.044 32.763 205.494 C 33.879 203.944 35.258 202.642 36.902 201.588 C 38.544 200.534 40.311 199.682 42.203 199.031 C 44.093 198.38 45.814 197.868 47.364 197.496 L 48.666 204.006 C 46.744 204.44 45.07 205.029 43.644 205.773 C 42.28 206.455 41.071 207.354 40.017 208.47 C 38.963 209.586 38.436 210.95 38.436 212.562 C 38.436 215.104 38.544 217.724 38.762 220.421 C 38.978 223.118 39.087 226.419 39.087 230.325 C 39.149 234.045 38.622 237.254 37.506 239.951 C 36.39 242.648 34.344 244.461 31.368 245.391 C 34.344 246.259 36.374 247.887 37.46 250.274 C 38.544 252.661 39.087 255.714 39.087 259.434 C 39.087 263.34 38.978 266.642 38.762 269.339 C 38.544 272.036 38.436 274.655 38.436 277.197 C 38.498 278.871 39.04 280.251 40.064 281.336 C 41.086 282.421 42.249 283.304 43.551 283.986 C 45.039 284.73 46.744 285.319 48.666 285.753 L 47.364 292.263 C 45.814 291.891 44.093 291.38 42.203 290.729 C 40.311 290.078 38.529 289.21 36.855 288.125 C 35.181 287.04 33.801 285.738 32.717 284.219 C 31.631 282.7 31.089 280.886 31.089 278.778 C 31.089 276.732 31.12 274.919 31.182 273.338 C 31.244 271.757 31.321 270.269 31.415 268.874 C 31.507 267.479 31.585 266.084 31.647 264.689 C 31.709 263.294 31.74 261.728 31.74 259.992 Z" style="text-wrap-mode: nowrap; fill: url(&quot;#color-4&quot;);"/>
      <path d="M 116.472 259.992 C 116.472 261.728 116.503 263.294 116.565 264.689 C 116.627 266.084 116.705 267.479 116.797 268.874 C 116.891 270.269 116.968 271.757 117.03 273.338 C 117.092 274.919 117.123 276.732 117.123 278.778 C 117.123 280.886 116.565 282.715 115.449 284.265 C 114.333 285.815 112.954 287.117 111.31 288.171 C 109.668 289.225 107.901 290.093 106.009 290.775 C 104.119 291.457 102.398 291.953 100.848 292.263 L 99.546 285.753 C 101.406 285.319 103.111 284.73 104.661 283.986 C 105.901 283.304 107.064 282.421 108.148 281.336 C 109.234 280.251 109.776 278.871 109.776 277.197 C 109.776 274.655 109.668 272.036 109.45 269.339 C 109.234 266.642 109.125 263.34 109.125 259.434 C 109.125 255.714 109.668 252.661 110.752 250.274 C 111.838 247.887 113.868 246.259 116.844 245.391 C 113.992 244.585 111.977 242.803 110.799 240.044 C 109.621 237.285 109.063 234.045 109.125 230.325 C 109.125 226.419 109.234 223.118 109.45 220.421 C 109.668 217.724 109.776 215.104 109.776 212.562 C 109.776 210.95 109.265 209.586 108.241 208.47 C 107.219 207.354 106.025 206.455 104.661 205.773 C 103.111 205.029 101.406 204.44 99.546 204.006 L 100.848 197.496 C 102.398 197.868 104.119 198.38 106.009 199.031 C 107.901 199.682 109.668 200.534 111.31 201.588 C 112.954 202.642 114.333 203.944 115.449 205.494 C 116.565 207.044 117.123 208.873 117.123 210.981 C 117.123 213.027 117.092 214.841 117.03 216.422 C 116.968 218.003 116.891 219.491 116.797 220.886 C 116.705 222.281 116.627 223.676 116.565 225.071 C 116.503 226.466 116.472 228.031 116.472 229.767 C 116.472 231.999 116.689 233.782 117.123 235.115 C 117.557 236.448 118.177 237.533 118.983 238.37 C 119.789 239.207 120.704 239.873 121.726 240.369 C 122.75 240.865 123.881 241.361 125.121 241.857 L 125.121 248.832 C 124.191 249.204 123.199 249.654 122.145 250.181 C 121.091 250.708 120.161 251.359 119.355 252.134 C 118.549 252.909 117.867 253.932 117.309 255.203 C 116.751 256.474 116.472 258.07 116.472 259.992 Z" style="text-wrap-mode: nowrap; fill: url(&quot;#color-4&quot;);"/>
    </g>
  </g>
</svg>